<?xml version="1.0" encoding="utf-8"?>
<!-- Generator: Adobe Illustrator 16.0.0, SVG Export Plug-In . SVG Version: 6.00 Build 0)  -->
<!DOCTYPE svg PUBLIC "-//W3C//DTD SVG 1.1//EN" "http://www.w3.org/Graphics/SVG/1.1/DTD/svg11.dtd">
<svg version="1.1" id="Group_1_copy_1_" xmlns="http://www.w3.org/2000/svg" xmlns:xlink="http://www.w3.org/1999/xlink" x="0px"
	 y="0px" width="362.246px" height="172.223px" viewBox="0 0 362.246 172.223" enable-background="new 0 0 362.246 172.223"
	 xml:space="preserve">
<g id="Ellipse_1">
	<g>
		<ellipse fill="#045B6E" cx="343.604" cy="85.63" rx="16.477" ry="16.356"/>
	</g>
</g>
<g id="Shape_1">
	<g>
		<path fill="#045B6E" d="M334.183,101.826v66.949h18.521c0,0,0-57.328,0-66.949C341.319,109.604,334.183,101.826,334.183,101.826z"
			/>
	</g>
</g>
<g id="Shape_2">
	<g>
		<path fill="#045B6E" d="M280.624,73.844c-2.085,0-32.993,0-32.993,0v94.931h19.764V86.673h13.229c0,0,12.829,1.844,12.829,15.153
			s-9.381,19.243-19.725,19.243c0,6.414,0,11.465,0,11.465s37.523,0.722,38.405-30.708
			C312.133,72.962,282.708,73.844,280.624,73.844z"/>
	</g>
</g>
<g id="Shape_3">
	<g>
		<path fill="#045B6E" d="M209.265,117.862c-3.247-3.067-14.854-10.664-18.04-16.036c-1.744-1.944-5.231-5.432-1.925-11.626
			c1.805-2.586,5.052-7.096,12.989-5.051c7.938,2.225,12.989,4.811,12.989,4.811l7.216-11.064c0,0-10.944-7.096-25.256-7.096
			c-14.313,0-27.782,6.615-29.466,22.731c0,17.078,17.198,24.815,18.642,26.539c1.323,1.724,21.047,14.833,19.242,24.214
			c-1.563,5.291-4.811,16.837-25.015,10.103c-3.608-1.083-9.742-5.052-9.742-5.052l-6.976,10.824c0,0,6.134,7.577,26.098,9.621
			c18.642,0,33.194-9.02,35.238-25.496C224.239,128.866,212.512,120.929,209.265,117.862z"/>
	</g>
</g>
<g id="Shape_4">
	<g>
		<path fill="#045B6E" d="M152.258,55.563c-1.523-1.924-9.06-11.866-37.042-17.318c0,0,6.414,18.401,6.735,25.978
			c3.849,0.882,36.16,5.773,35.599,26.939C158.191,90.12,160.917,76.089,152.258,55.563z"/>
	</g>
</g>
<g id="Shape_5">
	<g>
		<path fill="#146B5A" d="M108.481,25.016c-3.223-6.254-8.371-12.796-11.545-15.395c-3.175-2.598-5.821-3.03-8.9-2.886
			s-7.505,3.271-9.621,5.532C87.122,24.438,88.998,32.616,89.96,35.84c18.04-0.048,25.256,2.405,25.256,2.405
			S111.704,31.27,108.481,25.016z"/>
	</g>
</g>
<g id="Shape_6">
	<g>
		<path fill="#146B5A" d="M89.96,35.599L68.071,36.08c0,0-3.127,10.343-3.368,25.978c2.466,0,20.325-1.924,31.27-0.722
			C95.432,57.909,91.223,41.612,89.96,35.599z"/>
	</g>
</g>
<g id="Shape_7">
	<g>
		<path fill="#F68E1B" d="M122.191,64.223c-1.443-0.361-25.978-3.127-25.978-3.127c1.283,5.773,2.084,25.577,1.924,40.73
			c-1.203,19.163-4.009,28.544-7.216,37.443c-7.296,13.31-10.022,12.908-14.673,14.913c0.561-0.08,15.635,0.962,25.016,1.203
			c14.031-4.812,19.483-27.061,20.926-34.316C127.002,90.12,122.643,67.019,122.191,64.223z"/>
	</g>
</g>
<g id="Shape_8">
	<g>
		<path fill="#146B5A" d="M58.45,1.604c0,0-24.294,7.176-22.129,70.196c0,6.134,1.323,16.417,1.924,18.401
			c1.984,0.361,19.543,4.39,26.699,9.141c-0.842-3.969-2.766-13.47-2.766-27.542c0-13.71,0.922-34.517,6.855-48.227
			c2.084-5.211,8.418-22.45,24.775-17.799C91.083,3.608,83.626,1.604,58.45,1.604z"/>
	</g>
</g>
<g id="Shape_9">
	<g>
		<path fill="#045B6E" d="M154.904,86.673c-0.601-2.546-1.677-5.863-7.938-9.461c-2.209,2.319,0.002,1.991-19.964,10.824
			c0,0,0.661,15.274-1.443,26.219c2.706-0.661,17.619-5.974,24.535-12.428C152.318,99.101,156.889,96.615,154.904,86.673z"/>
	</g>
</g>
<g id="Shape_10">
	<g>
		<path fill="#045B6E" d="M34.637,42.575c0,0-14.192,6.174-18.762,8.659c-4.57,2.485-6.896,5.292-9.622,9.381
			c-4.25,11.465,4.891,18.12,6.976,19.483c6.495-4.971,14.191-8.299,20.445-10.824C32.392,59.091,34.637,42.575,34.637,42.575z"/>
	</g>
</g>
<g id="Shape_11">
	<g>
		<path fill="#045B6E" d="M67.59,131.572c0,0-7.457,6.574-21.408,11.064c0.241,7.617,0.642,21.167-1.924,27.181
			c6.174-1.925,22.851-8.018,27.902-14.673C74.967,150.574,80.659,142.075,67.59,131.572z"/>
	</g>
</g>
<g id="Shape_12">
	<g>
		<path fill="#045B6E" d="M78.415,130.37c-2.406-12.588-2.486-13.631-5.051-19.483c-3.528-5.854-6.415-7.457-12.508-10.824
			c-3.688-2.646-20.366-5.934-26.459-7.697c-10.503-2.485-18.602-7.216-22.37-9.622c-13.069-6.815-7.938-21.407-7.938-21.407
			C0.642,67.27,1.283,71.799,1.684,73.844c1.443,8.098,3.769,20.525,4.57,25.015c8.82,12.188,18.682,15.074,25.737,17.078
			c13.63,2.085,25.256,7.216,32.231,10.103c17.639,8.819,14.432,19.403,14.192,21.407C81.06,143.84,79.216,134.859,78.415,130.37z"
			/>
	</g>
</g>
<g id="Ellipse_1_copy">
	<g>
		<ellipse fill="#045B6E" cx="105.835" cy="48.949" rx="11.546" ry="11.425"/>
	</g>
</g>
</svg>
